<?xml version="1.0" encoding="utf-8" ?><svg xmlns="http://www.w3.org/2000/svg" xmlns:xlink="http://www.w3.org/1999/xlink" width="1024" height="1024" viewBox="0 0 1024 1024"><path fill="white" d="M0 0L1024 0L1024 1024L0 1024L0 0Z"/><path fill="#161616" d="M648.655 360.711C678.702 360.293 709.371 360.896 739.468 360.798C745.325 360.779 771.482 360.357 774.811 360.975C775.509 363.23 775.511 362.161 775.05 364.295C772.492 367.361 765.801 366.699 761.954 367.37C714.216 375.704 698.614 410.931 681.67 451.005L662.814 495.569L630.123 570.782C616.29 603.016 601.878 637.424 587.194 669.244L531.354 537.533C512.67 494.336 493.326 452.434 475.501 408.787C467.282 389.409 457.163 372.049 435.055 367.375C430.647 366.443 425.161 366.984 421.042 365.608C420.601 364.319 420.391 362.184 421.289 361.089C426.185 360.47 436.698 360.773 442.128 360.797L479.963 360.952L534.877 360.901C543.908 360.882 556.07 360.495 564.909 360.985C566.105 362.214 566.4 363.111 565.92 364.678C565.203 365.372 564.242 366.052 563.234 366.13C554.016 366.839 545.887 367.433 537.422 371.742C521.197 380 520.991 399.378 525.072 414.717C530.066 433.485 538.282 450.836 546.014 468.563L571.985 528.378C577.796 541.576 583.505 554.819 589.112 568.105C593.639 578.977 601.346 597.868 606.809 607.964L607.104 608.5C611.567 599.095 616.282 587.115 620.401 577.364L648.495 510.494L671.497 457.163C679.549 438.419 688.855 420.145 689.515 399.303C690.44 370.069 672.466 366.713 648.792 366.377C648.641 364.621 648.675 362.498 648.655 360.711Z"/><path fill="#161616" d="M54.0683 360.601L160.319 360.712L189.506 360.702C193.267 360.7 201.434 360.464 204.885 360.98C205.766 362.45 205.445 364.632 205.387 366.455C193.536 366.503 179.85 367.297 169.479 373.353C136.17 392.801 141.685 446.42 141.863 479.052L141.925 553.654C141.886 584.781 143.178 617.348 116.723 639.369C109.059 645.749 101.898 649.563 93.2242 654.277C112.821 654.08 132.418 654.032 152.016 654.134C172 654.169 191.215 655.13 210.934 650.811C232.893 646.002 257.1 636.171 273.058 619.836C277.616 615.171 280.55 610.658 284.058 605.313C289.396 596.505 292.553 587.724 294.755 577.706C295.571 573.992 295.531 570.956 296.745 567.294C298.347 565.957 297.52 566.193 299.207 565.942L300.189 566.853C301.791 571.642 299.616 583.633 299.339 589.186C298.144 613.129 294.99 637.196 294.265 661.155C217.17 660.217 139.819 661.44 62.6996 661.08C59.7919 661.067 55.1068 661.381 52.4413 660.344C52.2887 658.115 52.2196 657.856 52.7063 655.724C55.7221 653.892 68.049 655.754 75.222 650.969C105.992 630.439 102.022 587.487 101.963 555.573L101.933 491.511L101.949 444.72C101.955 417.004 103.912 374.475 67.7932 367.039C63.6766 366.191 58.7491 366.888 54.3888 365.893C53.7914 364.608 54.0329 362.152 54.0683 360.601Z"/><path fill="#161616" d="M352.078 360.706C393.057 358.445 420.693 372.72 455.563 391.75C464.659 416.058 473.245 441.994 481.936 466.625L477.16 469.183C458.174 427.864 425.449 377.48 377.394 368.416C312.752 356.223 270.931 404.279 260.513 463.615C255.044 494.725 258.55 529.566 271.917 558.262C275.482 565.915 280.019 573.073 284.501 580.212C279.917 595.361 265.955 614.356 252.601 622.848C247.258 618.03 242.771 612.149 238.758 606.201C199.671 548.265 206.046 465.032 251.214 412.528C276.643 382.574 312.919 363.936 352.078 360.706Z"/><path fill="#161616" d="M505.983 559.504C507.332 560.02 509.049 561.648 510.235 562.648C484.363 623.89 433.813 666.084 365.456 667.065C343.407 667.382 325.47 664.193 304.842 656.386L305.46 646.125C305.494 632.093 307.41 617.322 307.516 603.296C314.84 608.465 321.024 612.549 329.178 616.505C363.987 633.097 403.985 635.088 440.27 622.034C471.198 611.076 492.209 588.596 505.983 559.504Z"/><path fill="white" d="M893.295 608.74C897.938 607.112 904.096 606.802 908.692 608.693C915.115 611.13 919.541 614.599 922.588 620.876C925.104 626.06 924.016 630.172 918.606 632.27C915.197 632.474 911.784 632.608 908.369 632.672C905.244 633.27 883.474 632.592 879.066 632.495C879.308 640.376 879.926 647.411 885.064 653.914C888.614 658.483 893.907 661.364 899.671 661.864C906.327 662.427 912.595 659.96 917.406 655.408C919.013 653.889 919.76 652.522 921.442 651.083L921.689 651.427C915.743 661.737 900.228 666.824 889.778 661.625C868.331 650.953 870.779 616.717 893.295 608.74Z"/><path fill="#161616" d="M879.066 632.495C879.308 640.376 879.926 647.411 885.064 653.914C888.614 658.483 893.907 661.364 899.671 661.864C906.327 662.427 912.595 659.96 917.406 655.408C919.013 653.889 919.76 652.522 921.442 651.083L921.689 651.427C915.743 661.737 900.228 666.824 889.778 661.625C868.331 650.953 870.779 616.717 893.295 608.74L893.575 609.567C885.019 613.732 879.421 621.847 879.341 631.482L879.066 632.495Z"/><path fill="#161616" d="M908.692 608.693C915.115 611.13 919.541 614.599 922.588 620.876C925.104 626.06 924.016 630.172 918.606 632.27C916.901 632.071 916.364 632.042 914.686 631.486C925.892 626.596 915.571 613.648 908.308 609.62L908.692 608.693Z"/><path fill="#777273" d="M912.032 631.542L914.686 631.486C916.364 632.042 916.901 632.071 918.606 632.27C915.197 632.474 911.784 632.608 908.369 632.672C905.244 633.27 883.474 632.592 879.066 632.495L879.341 631.482C890.238 631.574 901.135 631.594 912.032 631.542Z"/><path fill="#4A4849" d="M912.032 631.542L914.686 631.486C916.364 632.042 916.901 632.071 918.606 632.27C915.197 632.474 911.784 632.608 908.369 632.672L907.499 632.387L907.584 632.137C909.261 632.048 910.398 631.829 912.032 631.542Z"/><path fill="#4A4849" d="M893.295 608.74C897.938 607.112 904.096 606.802 908.692 608.693L908.308 609.62C903.27 607.786 898.607 608.124 893.575 609.567L893.295 608.74Z"/><path fill="white" d="M652.882 663.252C651.403 663.751 647.741 663.667 646.13 663.417C626.857 660.423 619.772 637.446 627.829 621.542C630.931 615.419 636.596 610.66 643.251 608.495C654.851 604.646 669.36 610.629 672.622 622.943C673.908 627.796 672.403 631.21 667.354 632.243C661.087 632.585 654.921 632.562 648.647 632.588C644.761 633.243 636.272 633.217 632.425 632.539L628.745 632.476C626.712 648.421 636.351 661.301 652.894 661.733L652.53 662.611L652.882 663.252Z"/><path fill="#161616" d="M652.882 663.252C651.403 663.751 647.741 663.667 646.13 663.417C626.857 660.423 619.772 637.446 627.829 621.542C630.931 615.419 636.596 610.66 643.251 608.495C654.851 604.646 669.36 610.629 672.622 622.943C673.908 627.796 672.403 631.21 667.354 632.243C666.059 632.022 665.432 631.805 664.187 631.435C665.742 630.692 668.203 629.597 668.445 627.663C669.613 618.348 664.15 610.447 655.153 608.633C649.459 607.537 643.563 608.773 638.789 612.065C633.682 615.526 630.223 620.935 629.222 627.023C629.006 628.357 628.738 630.167 628.744 631.487L628.745 632.476C626.712 648.421 636.351 661.301 652.894 661.733L652.53 662.611L652.882 663.252Z"/><path fill="#4A4849" d="M664.187 631.435C665.432 631.805 666.059 632.022 667.354 632.243C661.087 632.585 654.921 632.562 648.647 632.588C647.512 632.564 646.164 632.148 645.477 632.277L650.126 631.551C654.812 631.453 659.499 631.415 664.187 631.435Z"/><path fill="#A6A6A4" d="M643.889 631.893C646.06 631.285 647.863 631.494 650.126 631.551L645.477 632.277C646.164 632.148 647.512 632.564 648.647 632.588C644.761 633.243 636.272 633.217 632.425 632.539C636.341 632.34 640.041 632.821 644.008 632.335L643.889 631.893Z"/><path fill="#777273" d="M628.744 631.487C634.353 631.863 638.244 631.985 643.889 631.893L644.008 632.335C640.041 632.821 636.341 632.34 632.425 632.539L628.745 632.476L628.744 631.487Z"/><path fill="#161616" d="M861.245 607.068C864.189 606.857 868.696 607.022 871.153 608.815C873.094 611.649 871.481 616.112 871.245 620.652C870.07 617.283 869.351 614.027 866.608 611.558C862.088 607.235 856.156 609.103 852.486 613.449C850.363 615.905 847.25 620.731 846.904 624.088C845.87 634.126 846.464 644.713 846.448 654.82C846.443 657.731 849.099 659.948 851.12 661.684L851.622 662.11C849.544 662.541 847.286 662.448 845.143 662.469C842.07 662.534 839.089 662.684 836.034 662.331L836.105 661.856C837.155 661.57 838.411 661.321 839.384 660.842C840.385 660.348 840.962 659.366 841.346 658.351C842.825 654.446 843.226 616.212 841.57 613.311C840.539 611.504 839.511 610.61 837.535 609.962C837.383 609.912 837.23 609.868 837.077 609.821C839.742 609.44 843.4 608.279 846.13 607.547C846.592 611.736 846.413 617.862 846.412 622.209C850.341 613.877 852.659 610.745 861.245 607.068Z"/><path fill="#161616" d="M697.458 615.467C708.924 601.317 727.706 605.446 729.507 623.931C730.09 629.92 729.196 636.011 729.571 641.857C730.071 649.634 726.835 657.746 734.8 661.827C732.701 662.729 721.59 662.452 718.59 662.452C725.798 658.854 726.314 655.815 725.552 647.537C724.558 636.738 729.729 612.964 715.414 609.378C711.234 608.333 706.807 609.117 703.24 611.535C701.633 612.616 699.408 614.669 698.08 616.063L697.458 615.467Z"/><path fill="#161616" d="M682.89 609.866C687.099 609.058 689.238 608.514 693.316 607.198C693.064 612.232 693.08 617.642 693.005 622.71C694.676 619.412 695.212 618.393 697.458 615.467L698.08 616.063C697.264 617.365 693.729 622.89 693.603 624.194C692.651 634.105 692.573 647.31 693.79 657.223C694.103 659.766 697.616 661.387 699.63 662.555C694.219 662.559 688.808 662.503 683.399 662.387C684.36 661.741 688.559 658.999 688.666 657.391C689.524 644.431 689.347 626.438 688.339 613.54C688.245 612.334 683.929 610.357 682.89 609.866Z"/><path fill="#161616" d="M819.002 649.305C816.691 652.782 814.497 655.878 811.193 658.507C806.699 662.082 800.931 663.997 795.183 663.199C771.73 659.945 785.548 617.899 779.798 611.708C778.758 610.587 777.753 610.463 776.325 610.363C775.553 610.308 775.995 610.47 775.228 609.734C780.195 609.378 780.606 609.196 784.945 607.084C785.163 620.295 784.243 634.256 785.106 647.396C785.722 656.788 794.67 663.569 803.933 660.82C811.316 658.628 814.856 653.665 818.734 647.442L819.002 649.305Z"/><path fill="#161616" d="M750.344 598.04L751.512 599.144L751.447 608.95L751.19 609.794C753.046 623.054 749.838 640.071 752.265 653.581C754.512 666.091 761.167 660.53 766.935 660.353C760.371 666.107 752.161 664.849 748.787 655.201C746.251 647.951 749.224 613.282 746.89 609.648C744.98 609.295 743.169 609.863 741.245 610.272C746.408 606.063 748.164 604.449 750.344 598.04Z"/><path fill="#161616" d="M818.734 647.442C819.233 638.353 819.335 628.34 819.059 619.188C818.907 614.159 818.678 611.142 813.243 610.281C813.851 609.364 820.826 608.173 822.978 607.563L823.073 639.364C823.092 644.684 822.941 650.155 823.323 655.444C823.604 659.325 825.639 660.22 829.03 660.73L829.152 661.228C826.112 662.056 822.471 662.386 819.288 662.783C819.108 658.293 819.013 653.799 819.002 649.305L818.734 647.442Z"/><path fill="#161616" d="M942.721 609.285L943.002 610.037C940.433 611.913 937.309 614.544 937.143 617.96C936.151 638.343 972.088 627.996 971.348 649.582C971.174 654.649 968.644 657.882 964.646 660.662L963.822 660.058C965.765 658.529 967.92 656.138 968.335 653.579C971.968 631.134 929.061 641.362 935.331 617.286C936.334 613.432 939.332 611.083 942.721 609.285Z"/><path fill="#161616" d="M934.599 645.618C937.565 654.571 939.909 659.301 949.336 662.479L947.508 663.275C941.291 661.405 938.264 659.795 933.508 655.341C933.998 652.252 934.281 648.759 934.599 645.618Z"/><path fill="#161616" d="M956.36 607.755C961.508 608.956 965.154 610.118 969.538 613.332C969.214 617.742 968.717 622.817 968.611 627.186C966.912 618.16 965.961 611.347 955.854 608.635L956.36 607.755Z"/><path fill="#161616" d="M652.894 661.733L653.563 661.653C662.274 660.53 664.676 657.24 670.234 651.277C670.329 656.537 658.011 662.728 652.882 663.252L652.53 662.611L652.894 661.733Z"/><path fill="#4A4849" d="M949.336 662.479C955.563 662.639 958.126 662.825 963.822 660.058L964.646 660.662C959.304 663.484 953.452 664.162 947.508 663.275L949.336 662.479Z"/><path fill="#A6A6A4" d="M751.447 608.95C753.616 608.941 765.47 608.734 766.746 609.294C762.99 609.558 754.664 610.069 751.19 609.794L751.447 608.95Z"/><path fill="#4A4849" d="M942.721 609.285C946.659 607.407 952.108 606.787 956.36 607.755L955.854 608.635C950.664 608.136 948.014 607.881 943.002 610.037L942.721 609.285Z"/><path fill="#161616" d="M750.344 598.04C750.455 596.154 750.248 595.204 751.095 593.682C751.767 595.63 751.564 597.06 751.512 599.144L750.344 598.04Z"/></svg>