<svg xmlns="http://www.w3.org/2000/svg" viewBox="0 0 1024 1024" width="1024" height="1024" role="img" aria-label="LC Ventures logo">
  <title>LC Ventures logo</title>
  <g fill="#ffffff" fill-rule="evenodd">
  <path d="M 948.0 608.0 L 942.0 610.0 L 937.0 615.0 L 935.0 619.0 L 936.0 626.0 L 942.0 633.0 L 963.0 641.0 L 969.0 648.0 L 969.0 655.0 L 964.0 661.0 L 960.0 663.0 L 948.0 663.0 L 939.0 656.0 L 935.0 646.0 L 934.0 656.0 L 942.0 662.0 L 948.0 664.0 L 962.0 663.0 L 966.0 661.0 L 971.0 655.0 L 972.0 651.0 L 971.0 644.0 L 967.0 639.0 L 962.0 636.0 L 950.0 633.0 L 942.0 629.0 L 939.0 626.0 L 937.0 619.0 L 939.0 614.0 L 946.0 609.0 L 957.0 609.0 L 962.0 611.0 L 965.0 614.0 L 968.0 620.0 L 969.0 626.0 L 970.0 614.0 L 961.0 609.0 Z" />
  <path d="M 898.0 608.0 L 889.0 611.0 L 880.0 620.0 L 876.0 630.0 L 876.0 644.0 L 879.0 652.0 L 886.0 660.0 L 896.0 664.0 L 905.0 664.0 L 916.0 659.0 L 922.0 652.0 L 916.0 658.0 L 908.0 662.0 L 893.0 661.0 L 884.0 653.0 L 880.0 644.0 L 879.0 634.0 L 880.0 633.0 L 918.0 633.0 L 923.0 630.0 L 924.0 624.0 L 920.0 616.0 L 914.0 611.0 L 906.0 608.0 Z" />
  <path d="M 880.0 627.0 L 884.0 618.0 L 890.0 612.0 L 896.0 609.0 L 907.0 609.0 L 916.0 615.0 L 920.0 623.0 L 920.0 628.0 L 916.0 632.0 L 881.0 632.0 Z" />
  <path d="M 869.0 608.0 L 860.0 608.0 L 855.0 611.0 L 849.0 618.0 L 847.0 617.0 L 846.0 608.0 L 838.0 610.0 L 843.0 615.0 L 843.0 657.0 L 839.0 662.0 L 836.0 663.0 L 852.0 663.0 L 847.0 658.0 L 847.0 623.0 L 851.0 616.0 L 858.0 610.0 L 867.0 611.0 L 871.0 619.0 L 872.0 619.0 L 873.0 611.0 Z" />
  <path d="M 775.0 610.0 L 779.0 611.0 L 782.0 615.0 L 782.0 650.0 L 784.0 655.0 L 789.0 661.0 L 795.0 664.0 L 805.0 663.0 L 812.0 659.0 L 819.0 652.0 L 820.0 653.0 L 820.0 663.0 L 830.0 662.0 L 825.0 660.0 L 823.0 652.0 L 824.0 649.0 L 823.0 648.0 L 823.0 608.0 L 818.0 610.0 L 814.0 610.0 L 814.0 611.0 L 819.0 613.0 L 820.0 617.0 L 820.0 645.0 L 817.0 652.0 L 810.0 659.0 L 804.0 662.0 L 794.0 661.0 L 787.0 654.0 L 785.0 648.0 L 785.0 608.0 L 781.0 610.0 Z" />
  <path d="M 647.0 608.0 L 637.0 612.0 L 630.0 619.0 L 626.0 627.0 L 625.0 640.0 L 629.0 652.0 L 635.0 659.0 L 642.0 663.0 L 654.0 664.0 L 664.0 660.0 L 671.0 652.0 L 665.0 658.0 L 658.0 662.0 L 646.0 662.0 L 640.0 659.0 L 633.0 652.0 L 630.0 646.0 L 629.0 634.0 L 630.0 633.0 L 667.0 633.0 L 672.0 631.0 L 673.0 623.0 L 669.0 615.0 L 662.0 610.0 L 656.0 608.0 Z" />
  <path d="M 629.0 631.0 L 630.0 624.0 L 634.0 617.0 L 638.0 613.0 L 646.0 609.0 L 657.0 609.0 L 661.0 611.0 L 668.0 618.0 L 669.0 621.0 L 669.0 629.0 L 665.0 632.0 L 631.0 633.0 Z" />
  <path d="M 725.0 612.0 L 718.0 608.0 L 714.0 607.0 L 709.0 608.0 L 700.0 613.0 L 696.0 619.0 L 694.0 620.0 L 693.0 619.0 L 694.0 608.0 L 688.0 610.0 L 683.0 610.0 L 686.0 611.0 L 690.0 616.0 L 690.0 657.0 L 684.0 663.0 L 699.0 663.0 L 694.0 658.0 L 693.0 653.0 L 693.0 628.0 L 698.0 617.0 L 703.0 612.0 L 710.0 609.0 L 714.0 609.0 L 719.0 611.0 L 724.0 616.0 L 726.0 621.0 L 726.0 657.0 L 720.0 663.0 L 735.0 663.0 L 730.0 657.0 L 730.0 621.0 Z" />
  <path d="M 751.0 594.0 L 750.0 602.0 L 743.0 610.0 L 743.0 611.0 L 744.0 610.0 L 748.0 611.0 L 749.0 656.0 L 754.0 663.0 L 762.0 664.0 L 769.0 660.0 L 770.0 658.0 L 767.0 661.0 L 760.0 663.0 L 757.0 662.0 L 753.0 657.0 L 752.0 653.0 L 752.0 611.0 L 753.0 610.0 L 768.0 610.0 L 753.0 610.0 L 752.0 609.0 L 752.0 594.0 Z" />
  <path d="M 510.0 563.0 L 507.0 560.0 L 496.0 580.0 L 489.0 589.0 L 474.0 604.0 L 463.0 612.0 L 446.0 621.0 L 424.0 628.0 L 406.0 631.0 L 377.0 631.0 L 364.0 629.0 L 335.0 620.0 L 321.0 613.0 L 308.0 604.0 L 306.0 654.0 L 305.0 656.0 L 313.0 660.0 L 337.0 666.0 L 368.0 668.0 L 369.0 667.0 L 381.0 667.0 L 398.0 664.0 L 428.0 654.0 L 452.0 640.0 L 473.0 622.0 L 485.0 608.0 L 496.0 592.0 L 507.0 572.0 Z" />
  <path d="M 587.0 669.0 L 702.0 409.0 L 733.0 378.0 L 775.0 366.0 L 775.0 361.0 L 649.0 362.0 L 650.0 367.0 L 673.0 369.0 L 685.0 378.0 L 690.0 390.0 L 690.0 407.0 L 681.0 438.0 L 608.0 608.0 L 535.0 444.0 L 524.0 411.0 L 523.0 394.0 L 529.0 379.0 L 542.0 370.0 L 564.0 367.0 L 566.0 362.0 L 421.0 362.0 L 421.0 366.0 L 438.0 368.0 L 453.0 375.0 L 472.0 399.0 Z" />
  <path d="M 456.0 392.0 L 423.0 375.0 L 399.0 366.0 L 372.0 361.0 L 351.0 361.0 L 317.0 368.0 L 293.0 379.0 L 271.0 394.0 L 254.0 410.0 L 238.0 431.0 L 227.0 452.0 L 219.0 475.0 L 214.0 502.0 L 214.0 534.0 L 220.0 567.0 L 233.0 597.0 L 250.0 621.0 L 254.0 623.0 L 270.0 608.0 L 278.0 597.0 L 285.0 581.0 L 271.0 557.0 L 262.0 530.0 L 259.0 513.0 L 259.0 475.0 L 269.0 434.0 L 287.0 402.0 L 305.0 384.0 L 333.0 370.0 L 367.0 367.0 L 391.0 372.0 L 414.0 384.0 L 439.0 407.0 L 459.0 434.0 L 477.0 469.0 L 479.0 469.0 L 482.0 465.0 Z" />
  <path d="M 55.0 361.0 L 56.0 367.0 L 68.0 367.0 L 84.0 374.0 L 93.0 384.0 L 100.0 400.0 L 103.0 426.0 L 103.0 592.0 L 99.0 618.0 L 90.0 638.0 L 71.0 654.0 L 53.0 656.0 L 53.0 661.0 L 295.0 661.0 L 301.0 567.0 L 297.0 568.0 L 291.0 594.0 L 281.0 612.0 L 263.0 630.0 L 242.0 642.0 L 190.0 655.0 L 97.0 654.0 L 127.0 630.0 L 140.0 601.0 L 142.0 429.0 L 148.0 401.0 L 156.0 386.0 L 166.0 376.0 L 185.0 368.0 L 205.0 367.0 L 206.0 362.0 Z" />
  </g>
</svg>
